<svg preserveAspectRatio="none" width="100%" height="100%" overflow="visible" style="display: block;" viewBox="0 0 12 9" fill="none" xmlns="http://www.w3.org/2000/svg">
<path id="Vector" d="M3.70444 7.27329L1.21906 4.7897C1.08514 4.65587 0.903505 4.58069 0.714111 4.58069C0.524717 4.58069 0.34308 4.65587 0.209158 4.7897C0.0752365 4.92353 0 5.10503 0 5.29429C0 5.388 0.0184712 5.4808 0.0543586 5.56737C0.0902461 5.65395 0.142847 5.73262 0.209158 5.79888L3.20306 8.79065C3.4824 9.06978 3.93363 9.06978 4.21297 8.79065L11.7908 1.21819C11.9248 1.08437 12 0.902859 12 0.713601C12 0.524342 11.9248 0.342835 11.7908 0.209009C11.6569 0.0751829 11.4753 0 11.2859 0C11.0965 0 10.9149 0.0751829 10.7809 0.209009L3.70444 7.27329Z" fill="white"/>
</svg>
