<svg preserveAspectRatio="none" width="100%" height="100%" overflow="visible" style="display: block;" viewBox="0 0 22 22" fill="none" xmlns="http://www.w3.org/2000/svg">
<g id="ic:round-check">
<rect width="22" height="22" rx="4" fill="var(--fill-0, #262626)"/>
<path id="Vector" d="M8.70444 14.2733L6.21906 11.7897C6.08514 11.6559 5.90351 11.5807 5.71411 11.5807C5.52472 11.5807 5.34308 11.6559 5.20916 11.7897C5.07524 11.9235 5 12.105 5 12.2943C5 12.388 5.01847 12.4808 5.05436 12.5674C5.09025 12.654 5.14285 12.7326 5.20916 12.7989L8.20306 15.7906C8.4824 16.0698 8.93363 16.0698 9.21297 15.7906L16.7908 8.21819C16.9248 8.08437 17 7.90286 17 7.7136C17 7.52434 16.9248 7.34284 16.7908 7.20901C16.6569 7.07518 16.4753 7 16.2859 7C16.0965 7 15.9149 7.07518 15.7809 7.20901L8.70444 14.2733Z" fill="var(--fill-0, white)"/>
</g>
</svg>
