<svg preserveAspectRatio="none" width="100%" height="100%" overflow="visible" style="display: block;" viewBox="0 0 14 14" fill="none" xmlns="http://www.w3.org/2000/svg">
<g id="material-symbols:star-rounded">
<path id="Vector" d="M7 10.0771L4.57917 11.5354C4.47222 11.6035 4.36042 11.6326 4.24375 11.6229C4.12708 11.6132 4.025 11.5743 3.9375 11.5062C3.85 11.4382 3.78194 11.3532 3.73333 11.2513C3.68472 11.1494 3.675 11.0351 3.70417 10.9083L4.34583 8.15208L2.20208 6.3C2.10486 6.2125 2.04419 6.11275 2.02008 6.00075C1.99597 5.88875 2.00317 5.77947 2.04167 5.67292C2.08017 5.56636 2.1385 5.47886 2.21667 5.41042C2.29483 5.34197 2.40178 5.29822 2.5375 5.27917L5.36667 5.03125L6.46042 2.43542C6.50903 2.31875 6.58447 2.23125 6.68675 2.17292C6.78903 2.11458 6.89344 2.08542 7 2.08542C7.10656 2.08542 7.21097 2.11458 7.31325 2.17292C7.41553 2.23125 7.49097 2.31875 7.53958 2.43542L8.63333 5.03125L11.4625 5.27917C11.5986 5.29861 11.7056 5.34236 11.7833 5.41042C11.8611 5.47847 11.9194 5.56597 11.9583 5.67292C11.9972 5.77986 12.0046 5.88933 11.9805 6.00133C11.9564 6.11333 11.8955 6.21289 11.7979 6.3L9.65417 8.15208L10.2958 10.9083C10.325 11.0347 10.3153 11.1491 10.2667 11.2513C10.2181 11.3536 10.15 11.4386 10.0625 11.5062C9.975 11.5739 9.87292 11.6128 9.75625 11.6229C9.63958 11.633 9.52778 11.6039 9.42083 11.5354L7 10.0771Z" fill="var(--fill-0, #FFD03C)"/>
</g>
</svg>
