<svg preserveAspectRatio="none" width="100%" height="100%" overflow="visible" style="display: block;" viewBox="0 0 24 24" fill="none" xmlns="http://www.w3.org/2000/svg">
<g id="material-symbols-light:search-rounded">
<g id="Vector">
<mask id="path-1-outside-1_495_5696" maskUnits="userSpaceOnUse" x="2.808" y="2.77" width="18" height="18" fill="black">
<rect fill="white" x="2.808" y="2.77" width="18" height="18"/>
<path d="M9.539 15.23C7.94033 15.23 6.58533 14.6747 5.474 13.564C4.36333 12.454 3.808 11.0993 3.808 9.5C3.808 7.90067 4.36333 6.54567 5.474 5.435C6.58467 4.32433 7.93967 3.76933 9.539 3.77C11.1383 3.77067 12.493 4.326 13.603 5.436C14.713 6.546 15.2683 7.90067 15.269 9.5C15.269 10.1947 15.146 10.867 14.9 11.517C14.654 12.167 14.3307 12.723 13.93 13.185L19.839 19.092C19.9323 19.1853 19.9823 19.3003 19.989 19.437C19.995 19.5723 19.945 19.6933 19.839 19.8C19.7323 19.9067 19.6143 19.96 19.485 19.96C19.3557 19.96 19.2377 19.9067 19.131 19.8L13.223 13.892C12.723 14.318 12.148 14.6477 11.498 14.881C10.848 15.1143 10.1947 15.231 9.538 15.231M9.538 14.231C10.8647 14.231 11.985 13.7743 12.899 12.861C13.8123 11.9477 14.269 10.8273 14.269 9.5C14.269 8.17267 13.8127 7.05267 12.9 6.14C11.9873 5.22733 10.8673 4.77067 9.54 4.77C8.21267 4.77 7.09233 5.22667 6.179 6.14C5.26567 7.05333 4.80867 8.17333 4.808 9.5C4.80733 10.8267 5.264 11.9467 6.178 12.86C7.092 13.7733 8.212 14.23 9.538 14.23"/>
</mask>
<path d="M9.539 15.23C7.94033 15.23 6.58533 14.6747 5.474 13.564C4.36333 12.454 3.808 11.0993 3.808 9.5C3.808 7.90067 4.36333 6.54567 5.474 5.435C6.58467 4.32433 7.93967 3.76933 9.539 3.77C11.1383 3.77067 12.493 4.326 13.603 5.436C14.713 6.546 15.2683 7.90067 15.269 9.5C15.269 10.1947 15.146 10.867 14.9 11.517C14.654 12.167 14.3307 12.723 13.93 13.185L19.839 19.092C19.9323 19.1853 19.9823 19.3003 19.989 19.437C19.995 19.5723 19.945 19.6933 19.839 19.8C19.7323 19.9067 19.6143 19.96 19.485 19.96C19.3557 19.96 19.2377 19.9067 19.131 19.8L13.223 13.892C12.723 14.318 12.148 14.6477 11.498 14.881C10.848 15.1143 10.1947 15.231 9.538 15.231M9.538 14.231C10.8647 14.231 11.985 13.7743 12.899 12.861C13.8123 11.9477 14.269 10.8273 14.269 9.5C14.269 8.17267 13.8127 7.05267 12.9 6.14C11.9873 5.22733 10.8673 4.77067 9.54 4.77C8.21267 4.77 7.09233 5.22667 6.179 6.14C5.26567 7.05333 4.80867 8.17333 4.808 9.5C4.80733 10.8267 5.264 11.9467 6.178 12.86C7.092 13.7733 8.212 14.23 9.538 14.23" fill="var(--fill-0, #262626)"/>
<path d="M5.474 13.564L5.61538 13.4225V13.4225L5.474 13.564ZM15.269 9.5H15.469V9.49992L15.269 9.5ZM13.93 13.185L13.7789 13.054L13.6568 13.1947L13.7886 13.3264L13.93 13.185ZM19.839 19.092L19.9804 18.9506L19.9804 18.9506L19.839 19.092ZM19.989 19.437L20.1888 19.4281L20.1888 19.4273L19.989 19.437ZM19.839 19.8L19.9804 19.9414L19.9809 19.941L19.839 19.8ZM19.131 19.8L19.2724 19.6586V19.6586L19.131 19.8ZM13.223 13.892L13.3644 13.7506L13.2339 13.62L13.0933 13.7398L13.223 13.892ZM12.899 12.861L13.0404 13.0025L13.0404 13.0024L12.899 12.861ZM9.54 4.77L9.5401 4.57H9.54V4.77ZM9.539 15.23V15.03C7.99232 15.03 6.68848 14.495 5.61538 13.4225L5.474 13.564L5.33262 13.7055C6.48219 14.8543 7.88835 15.43 9.539 15.43V15.23ZM5.474 13.564L5.61538 13.4225C4.54302 12.3508 4.008 11.0474 4.008 9.5H3.808H3.608C3.608 11.1513 4.18365 12.5572 5.33262 13.7055L5.474 13.564ZM3.808 9.5H4.008C4.008 7.95263 4.54302 6.64882 5.61542 5.57642L5.474 5.435L5.33258 5.29358C4.18365 6.44251 3.608 7.84871 3.608 9.5H3.808ZM5.474 5.435L5.61542 5.57642C6.6878 4.50404 7.99157 3.96935 9.53892 3.97L9.539 3.77L9.53908 3.57C7.88776 3.56931 6.48153 4.14462 5.33258 5.29358L5.474 5.435ZM9.539 3.77L9.53892 3.97C11.0864 3.97064 12.3899 4.50569 13.4616 5.57742L13.603 5.436L13.7444 5.29458C12.5961 4.14631 11.1903 3.57069 9.53908 3.57L9.539 3.77ZM13.603 5.436L13.4616 5.57742C14.5333 6.64915 15.0684 7.95264 15.069 9.50008L15.269 9.5L15.469 9.49992C15.4683 7.84869 14.8927 6.44285 13.7444 5.29458L13.603 5.436ZM15.269 9.5H15.069C15.069 10.1705 14.9504 10.8188 14.7129 11.4462L14.9 11.517L15.0871 11.5878C15.3416 10.9152 15.469 10.2189 15.469 9.5H15.269ZM14.9 11.517L14.7129 11.4462C14.4742 12.0771 14.1622 12.612 13.7789 13.054L13.93 13.185L14.0811 13.316C14.4992 12.834 14.8338 12.2569 15.0871 11.5878L14.9 11.517ZM13.93 13.185L13.7886 13.3264L19.6976 19.2334L19.839 19.092L19.9804 18.9506L14.0714 13.0436L13.93 13.185ZM19.839 19.092L19.6976 19.2334C19.7544 19.2902 19.7849 19.3577 19.7892 19.4467L19.989 19.437L20.1888 19.4273C20.1798 19.243 20.1103 19.0804 19.9804 18.9506L19.839 19.092ZM19.989 19.437L19.7892 19.4459C19.7924 19.5189 19.7685 19.5872 19.6971 19.659L19.839 19.8L19.9809 19.941C20.1215 19.7995 20.1976 19.6258 20.1888 19.4281L19.989 19.437ZM19.839 19.8L19.6976 19.6586C19.6217 19.7345 19.5525 19.76 19.485 19.76V19.96V20.16C19.6762 20.16 19.843 20.0789 19.9804 19.9414L19.839 19.8ZM19.485 19.96V19.76C19.4175 19.76 19.3483 19.7345 19.2724 19.6586L19.131 19.8L18.9896 19.9414C19.127 20.0789 19.2938 20.16 19.485 20.16V19.96ZM19.131 19.8L19.2724 19.6586L13.3644 13.7506L13.223 13.892L13.0816 14.0334L18.9896 19.9414L19.131 19.8ZM13.223 13.892L13.0933 13.7398C12.6126 14.1493 12.0589 14.4672 11.4304 14.6928L11.498 14.881L11.5656 15.0692C12.2371 14.8282 12.8334 14.4867 13.3527 14.0442L13.223 13.892ZM11.498 14.881L11.4304 14.6928C10.801 14.9187 10.1705 15.031 9.538 15.031V15.231V15.431C10.2189 15.431 10.895 15.3099 11.5656 15.0692L11.498 14.881ZM9.538 14.231V14.431C10.9161 14.431 12.0878 13.9544 13.0404 13.0025L12.899 12.861L12.7576 12.7195C11.8822 13.5943 10.8132 14.031 9.538 14.031V14.231ZM12.899 12.861L13.0404 13.0024C13.9924 12.0504 14.469 10.8787 14.469 9.5H14.269H14.069C14.069 10.7759 13.6323 11.8449 12.7576 12.7196L12.899 12.861ZM14.269 9.5H14.469C14.469 8.12131 13.9928 6.94993 13.0414 5.99858L12.9 6.14L12.7586 6.28142C13.6326 7.15541 14.069 8.22403 14.069 9.5H14.269ZM12.9 6.14L13.0414 5.99858C12.0901 5.04726 10.9188 4.57069 9.5401 4.57L9.54 4.77L9.5399 4.97C10.8159 4.97064 11.8846 5.40741 12.7586 6.28142L12.9 6.14ZM9.54 4.77V4.57C8.16126 4.57 6.98956 5.04659 6.03758 5.99858L6.179 6.14L6.32042 6.28142C7.1951 5.40674 8.26407 4.97 9.54 4.97V4.77ZM6.179 6.14L6.03758 5.99858C5.08564 6.95052 4.60869 8.12183 4.608 9.4999L4.808 9.5L5.008 9.5001C5.00864 8.22483 5.44569 7.15615 6.32042 6.28142L6.179 6.14ZM4.808 9.5L4.608 9.4999C4.60731 10.8781 5.08396 12.0495 6.03663 13.0015L6.178 12.86L6.31937 12.7185C5.44404 11.8438 5.00736 10.7753 5.008 9.5001L4.808 9.5ZM6.178 12.86L6.03663 13.0015C6.98922 13.9534 8.16054 14.43 9.538 14.43V14.23V14.03C8.26346 14.03 7.19478 13.5933 6.31937 12.7185L6.178 12.86Z" fill="var(--stroke-0, #262626)" mask="url(#path-1-outside-1_495_5696)"/>
</g>
</g>
</svg>
