<svg preserveAspectRatio="none" width="100%" height="100%" overflow="visible" style="display: block;" viewBox="0 0 24 24" fill="none" xmlns="http://www.w3.org/2000/svg">
<g id="material-symbols-light:search-rounded">
<g id="Vector">
<mask id="path-1-outside-1_501_5826" maskUnits="userSpaceOnUse" x="2.808" y="2.77" width="18" height="18" fill="black">
<rect fill="white" x="2.808" y="2.77" width="18" height="18"/>
<path d="M9.539 15.23C7.94033 15.23 6.58533 14.6747 5.474 13.564C4.36333 12.454 3.808 11.0993 3.808 9.5C3.808 7.90067 4.36333 6.54567 5.474 5.435C6.58467 4.32433 7.93967 3.76933 9.539 3.77C11.1383 3.77067 12.493 4.326 13.603 5.436C14.713 6.546 15.2683 7.90067 15.269 9.5C15.269 10.1947 15.146 10.867 14.9 11.517C14.654 12.167 14.3307 12.723 13.93 13.185L19.839 19.092C19.9323 19.1853 19.9823 19.3003 19.989 19.437C19.995 19.5723 19.945 19.6933 19.839 19.8C19.7323 19.9067 19.6143 19.96 19.485 19.96C19.3557 19.96 19.2377 19.9067 19.131 19.8L13.223 13.892C12.723 14.318 12.148 14.6477 11.498 14.881C10.848 15.1143 10.1947 15.231 9.538 15.231M9.538 14.231C10.8647 14.231 11.985 13.7743 12.899 12.861C13.8123 11.9477 14.269 10.8273 14.269 9.5C14.269 8.17267 13.8127 7.05267 12.9 6.14C11.9873 5.22733 10.8673 4.77067 9.54 4.77C8.21267 4.77 7.09233 5.22667 6.179 6.14C5.26567 7.05333 4.80867 8.17333 4.808 9.5C4.80733 10.8267 5.264 11.9467 6.178 12.86C7.092 13.7733 8.212 14.23 9.538 14.23"/>
</mask>
<path d="M9.539 15.23C7.94033 15.23 6.58533 14.6747 5.474 13.564C4.36333 12.454 3.808 11.0993 3.808 9.5C3.808 7.90067 4.36333 6.54567 5.474 5.435C6.58467 4.32433 7.93967 3.76933 9.539 3.77C11.1383 3.77067 12.493 4.326 13.603 5.436C14.713 6.546 15.2683 7.90067 15.269 9.5C15.269 10.1947 15.146 10.867 14.9 11.517C14.654 12.167 14.3307 12.723 13.93 13.185L19.839 19.092C19.9323 19.1853 19.9823 19.3003 19.989 19.437C19.995 19.5723 19.945 19.6933 19.839 19.8C19.7323 19.9067 19.6143 19.96 19.485 19.96C19.3557 19.96 19.2377 19.9067 19.131 19.8L13.223 13.892C12.723 14.318 12.148 14.6477 11.498 14.881C10.848 15.1143 10.1947 15.231 9.538 15.231M9.538 14.231C10.8647 14.231 11.985 13.7743 12.899 12.861C13.8123 11.9477 14.269 10.8273 14.269 9.5C14.269 8.17267 13.8127 7.05267 12.9 6.14C11.9873 5.22733 10.8673 4.77067 9.54 4.77C8.21267 4.77 7.09233 5.22667 6.179 6.14C5.26567 7.05333 4.80867 8.17333 4.808 9.5C4.80733 10.8267 5.264 11.9467 6.178 12.86C7.092 13.7733 8.212 14.23 9.538 14.23" fill="var(--fill-0, #262626)"/>
<path d="M5.474 13.564L5.75676 13.2811H5.75676L5.474 13.564ZM15.269 9.5H15.669V9.49983L15.269 9.5ZM13.93 13.185L13.6278 12.9229L13.3837 13.2044L13.6472 13.4679L13.93 13.185ZM19.839 19.092L20.1218 18.8092L20.1218 18.8091L19.839 19.092ZM19.989 19.437L20.3886 19.4193L20.3885 19.4175L19.989 19.437ZM19.839 19.8L20.1218 20.0828L20.1227 20.082L19.839 19.8ZM19.131 19.8L19.4138 19.5172V19.5172L19.131 19.8ZM13.223 13.892L13.5058 13.6092L13.2447 13.348L12.9636 13.5875L13.223 13.892ZM12.899 12.861L13.1817 13.1439L13.1818 13.1438L12.899 12.861ZM9.54 4.77L9.5402 4.37H9.54V4.77ZM9.539 15.23V14.83C8.0443 14.83 6.79162 14.3153 5.75676 13.2811L5.474 13.564L5.19124 13.8469C6.37904 15.034 7.83637 15.63 9.539 15.63V15.23ZM5.474 13.564L5.75676 13.2811C4.7227 12.2476 4.208 10.9954 4.208 9.5H3.808H3.408C3.408 11.2033 4.00396 12.6604 5.19124 13.8469L5.474 13.564ZM3.808 9.5H4.208C4.208 8.00459 4.72271 6.75198 5.75684 5.71784L5.474 5.435L5.19116 5.15216C4.00396 6.33936 3.408 7.79675 3.408 9.5H3.808ZM5.474 5.435L5.75684 5.71784C6.79093 4.68375 8.04347 4.16938 9.53883 4.17L9.539 3.77L9.53917 3.37C7.83586 3.36929 6.3784 3.96491 5.19116 5.15216L5.474 5.435ZM9.539 3.77L9.53883 4.17C11.0344 4.17062 12.2867 4.68538 13.3202 5.71884L13.603 5.436L13.8858 5.15316C12.6993 3.96661 11.2423 3.37071 9.53917 3.37L9.539 3.77ZM13.603 5.436L13.3202 5.71884C14.3536 6.7523 14.8684 8.00462 14.869 9.50017L15.269 9.5L15.669 9.49983C15.6683 7.79671 15.0724 6.3397 13.8858 5.15316L13.603 5.436ZM15.269 9.5H14.869C14.869 10.1463 14.7548 10.7706 14.5259 11.3754L14.9 11.517L15.2741 11.6586C15.5372 10.9634 15.669 10.2431 15.669 9.5H15.269ZM14.9 11.517L14.5259 11.3754C14.2943 11.9873 13.9937 12.501 13.6278 12.9229L13.93 13.185L14.2322 13.4471C14.6676 12.945 15.0137 12.3467 15.2741 11.6586L14.9 11.517ZM13.93 13.185L13.6472 13.4679L19.5562 19.3749L19.839 19.092L20.1218 18.8091L14.2128 12.9021L13.93 13.185ZM19.839 19.092L19.5562 19.3748C19.5765 19.3951 19.5875 19.415 19.5895 19.4565L19.989 19.437L20.3885 19.4175C20.3772 19.1856 20.2882 18.9755 20.1218 18.8092L19.839 19.092ZM19.989 19.437L19.5894 19.4547C19.5899 19.4654 19.5921 19.481 19.5553 19.518L19.839 19.8L20.1227 20.082C20.2979 19.9057 20.4001 19.6793 20.3886 19.4193L19.989 19.437ZM19.839 19.8L19.5562 19.5172C19.511 19.5623 19.4906 19.56 19.485 19.56V19.96V20.36C19.7381 20.36 19.9536 20.251 20.1218 20.0828L19.839 19.8ZM19.485 19.96V19.56C19.4794 19.56 19.459 19.5623 19.4138 19.5172L19.131 19.8L18.8482 20.0828C19.0164 20.251 19.2319 20.36 19.485 20.36V19.96ZM19.131 19.8L19.4138 19.5172L13.5058 13.6092L13.223 13.892L12.9402 14.1748L18.8482 20.0828L19.131 19.8ZM13.223 13.892L12.9636 13.5875C12.5022 13.9806 11.9698 14.2866 11.3629 14.5045L11.498 14.881L11.6331 15.2575C12.3262 15.0087 12.9438 14.6554 13.4824 14.1965L13.223 13.892ZM11.498 14.881L11.3629 14.5045C10.7539 14.7231 10.1463 14.831 9.538 14.831V15.231V15.631C10.2431 15.631 10.9421 15.5056 11.6331 15.2575L11.498 14.881ZM9.538 14.231V14.631C10.9675 14.631 12.1905 14.1344 13.1817 13.1439L12.899 12.861L12.6163 12.5781C11.7795 13.4142 10.7618 13.831 9.538 13.831V14.231ZM12.899 12.861L13.1818 13.1438C14.1725 12.1532 14.669 10.9301 14.669 9.5H14.269H13.869C13.869 10.7245 13.4522 11.7421 12.6162 12.5782L12.899 12.861ZM14.269 9.5H14.669C14.669 8.06995 14.1729 6.84719 13.1828 5.85716L12.9 6.14L12.6172 6.42284C13.4525 7.25815 13.869 8.27538 13.869 9.5H14.269ZM12.9 6.14L13.1828 5.85716C12.1929 4.86718 10.9702 4.37072 9.5402 4.37L9.54 4.77L9.5398 5.17C10.7645 5.17061 11.7818 5.58749 12.6172 6.42284L12.9 6.14ZM9.54 4.77V4.37C8.10986 4.37 6.88679 4.86652 5.89616 5.85716L6.179 6.14L6.46184 6.42284C7.29787 5.58681 8.31547 5.17 9.54 5.17V4.77ZM6.179 6.14L5.89616 5.85716C4.90561 6.8477 4.40872 8.07033 4.408 9.4998L4.808 9.5L5.208 9.5002C5.20862 8.27633 5.62572 7.25897 6.46184 6.42284L6.179 6.14ZM4.808 9.5L4.408 9.4998C4.40728 10.9295 4.90391 12.1523 5.89526 13.1429L6.178 12.86L6.46074 12.5771C5.62409 11.741 5.20739 10.7238 5.208 9.5002L4.808 9.5ZM6.178 12.86L5.89526 13.1429C6.88644 14.1334 8.10908 14.63 9.538 14.63V14.23V13.83C8.31492 13.83 7.29756 13.4133 6.46074 12.5771L6.178 12.86Z" fill="var(--stroke-0, #262626)" mask="url(#path-1-outside-1_501_5826)"/>
</g>
</g>
</svg>
