<svg preserveAspectRatio="none" width="100%" height="100%" overflow="visible" style="display: block;" viewBox="0 0 105.871 29.4841" fill="none" xmlns="http://www.w3.org/2000/svg">
<g id="NARU">
<path id="Vector" d="M95.0354 24.7321C93.6674 24.7321 92.5274 24.4561 91.6154 23.9041C90.7274 23.3521 90.0554 22.6201 89.5994 21.7081C89.1674 20.7721 88.9514 19.7401 88.9514 18.6121V9.15527e-05H90.0314V18.6121C90.0314 20.0041 90.4274 21.1921 91.2194 22.1761C92.0114 23.1601 93.2834 23.6521 95.0354 23.6521C96.7874 23.6521 98.0594 23.1601 98.8514 22.1761C99.6434 21.1921 100.039 20.0041 100.039 18.6121V9.15527e-05H101.119V18.6121C101.119 19.7401 100.891 20.7721 100.435 21.7081C100.003 22.6201 99.3314 23.3521 98.4194 23.9041C97.5314 24.4561 96.4034 24.7321 95.0354 24.7321ZM95.0354 29.4841C92.8034 29.4841 90.8714 29.0041 89.2394 28.0441C87.6314 27.0601 86.3834 25.7401 85.4954 24.0841C84.6314 22.4281 84.1994 20.6041 84.1994 18.6121V9.15527e-05H85.2794V18.6121C85.2794 20.4121 85.6634 22.0561 86.4314 23.5441C87.2234 25.0321 88.3394 26.2201 89.7794 27.1081C91.2434 27.9721 92.9954 28.4041 95.0354 28.4041C97.0754 28.4041 98.8154 27.9721 100.255 27.1081C101.719 26.2201 102.835 25.0321 103.603 23.5441C104.395 22.0561 104.791 20.4121 104.791 18.6121V9.15527e-05H105.871V18.6121C105.871 20.6041 105.427 22.4281 104.539 24.0841C103.675 25.7401 102.439 27.0601 100.831 28.0441C99.2234 29.0041 97.2914 29.4841 95.0354 29.4841ZM95.0354 27.1081C93.2354 27.1081 91.6994 26.7241 90.4274 25.9561C89.1794 25.1881 88.2194 24.1681 87.5474 22.8961C86.8994 21.6001 86.5754 20.1721 86.5754 18.6121V9.15527e-05H87.6554V18.6121C87.6554 19.9801 87.9314 21.2281 88.4834 22.3561C89.0594 23.4601 89.8994 24.3481 91.0034 25.0201C92.1074 25.6921 93.4514 26.0281 95.0354 26.0281C96.6434 26.0281 97.9874 25.6921 99.0674 25.0201C100.171 24.3481 100.999 23.4601 101.551 22.3561C102.127 21.2281 102.415 19.9801 102.415 18.6121V9.15527e-05H103.495V18.6121C103.495 20.1721 103.159 21.6001 102.487 22.8961C101.839 24.1681 100.879 25.1881 99.6074 25.9561C98.3594 26.7241 96.8354 27.1081 95.0354 27.1081Z" fill="var(--fill-0, white)" fill-opacity="0.96"/>
<path id="Vector_2" d="M62.1272 28.9441V9.15527e-05H63.2072V28.9441H62.1272ZM57.3752 28.9441V9.15527e-05H58.4552V28.9441H57.3752ZM59.7512 28.9441V9.15527e-05H60.8312V28.9441H59.7512ZM64.5032 16.8481V15.7681H72.9632C74.3312 15.7681 75.5672 15.4681 76.6712 14.8681C77.7992 14.2681 78.6872 13.4161 79.3352 12.3121C80.0072 11.2081 80.3432 9.91209 80.3432 8.42409C80.3432 6.93609 80.0072 5.64009 79.3352 4.53609C78.6872 3.43209 77.7992 2.58009 76.6712 1.98009C75.5672 1.38009 74.3312 1.08009 72.9632 1.08009H64.5032V9.15527e-05H72.9632C74.5232 9.15527e-05 75.9392 0.36009 77.2112 1.08009C78.5072 1.77609 79.5272 2.76009 80.2712 4.03209C81.0392 5.28009 81.4232 6.74409 81.4232 8.42409C81.4232 10.1041 81.0392 11.5801 80.2712 12.8521C79.5272 14.1001 78.5072 15.0841 77.2112 15.8041C75.9392 16.5001 74.5232 16.8481 72.9632 16.8481H64.5032ZM64.5032 14.4721V13.3921H72.9632C74.3552 13.3921 75.5312 12.9601 76.4912 12.0961C77.4752 11.2081 77.9672 9.98409 77.9672 8.42409C77.9672 6.86409 77.4752 5.65209 76.4912 4.78809C75.5312 3.90009 74.3552 3.45609 72.9632 3.45609H64.5032V2.37609H72.9632C74.0912 2.37609 75.1112 2.62809 76.0232 3.13209C76.9352 3.61209 77.6672 4.30809 78.2192 5.22009C78.7712 6.10809 79.0472 7.17609 79.0472 8.42409C79.0472 9.67209 78.7712 10.7521 78.2192 11.6641C77.6672 12.5521 76.9352 13.2481 76.0232 13.7521C75.1112 14.2321 74.0912 14.4721 72.9632 14.4721H64.5032ZM64.5032 12.0961V11.0161H72.9632C73.6832 11.0161 74.2952 10.8121 74.7992 10.4041C75.3272 9.97209 75.5912 9.31209 75.5912 8.42409C75.5912 7.51209 75.3272 6.85209 74.7992 6.44409C74.2952 6.03609 73.6832 5.83209 72.9632 5.83209H64.5032V4.75209H72.9632C73.9952 4.75209 74.8712 5.06409 75.5912 5.68809C76.3112 6.31209 76.6712 7.22409 76.6712 8.42409C76.6712 9.62409 76.3112 10.5361 75.5912 11.1601C74.8712 11.7841 73.9952 12.0961 72.9632 12.0961H64.5032ZM79.9472 28.9441L74.8712 17.8201C75.0392 17.7961 75.2072 17.7721 75.3752 17.7481C75.5672 17.7001 75.7472 17.6401 75.9152 17.5681L81.1352 28.9441H79.9472ZM77.3192 28.9441L72.3152 18.0721C72.5072 18.0721 72.6992 18.0721 72.8912 18.0721C73.1072 18.0481 73.3112 18.0241 73.5032 18.0001L78.5072 28.9441H77.3192ZM74.6912 28.9441L69.7232 18.1081H70.9112L75.8792 28.9441H74.6912Z" fill="var(--fill-0, white)" fill-opacity="0.96"/>
<path id="Vector_3" d="M32.6125 28.9441L43.0885 9.15527e-05H44.2405L33.7645 28.9441H32.6125ZM27.5725 28.9441L38.0485 9.15527e-05H39.1645L28.7245 28.9441H27.5725ZM30.0925 28.9441L40.5325 9.15527e-05H41.7205L31.2445 28.9441H30.0925ZM53.7085 28.9441L44.3125 2.98809L44.8885 1.36809L54.8605 28.9441H53.7085ZM51.1885 28.9441L43.0885 6.51609L43.6285 4.86009L52.3405 28.9441H51.1885ZM48.6685 28.9441L41.8285 10.0081L42.4045 8.38809L49.8205 28.9441H48.6685ZM38.4805 19.3681L38.8765 18.2881H43.6285L44.0245 19.3681H38.4805ZM37.6165 21.7801L38.0125 20.7001H44.4925L44.8885 21.7801H37.6165ZM36.7525 24.1561L37.1485 23.0761H45.3565L45.7525 24.1561H36.7525Z" fill="var(--fill-0, white)" fill-opacity="0.96"/>
<path id="Vector_4" d="M23.9762 28.9441V9.15527e-05H25.0562V28.9441H23.9762ZM19.2242 28.9441V9.15527e-05H20.3042V28.9441H19.2242ZM21.6002 28.9441V9.15527e-05H22.6802V28.9441H21.6002ZM4.7522 28.9441V9.15527e-05H5.8322V28.9441H4.7522ZM0.000198364 28.9441V9.15527e-05H1.0802V28.9441H0.000198364ZM2.3762 28.9441V9.15527e-05H3.4562V28.9441H2.3762ZM17.9282 18.9721L7.1282 3.45609V1.54809L17.9282 17.0641V18.9721ZM17.9282 23.1481L7.1282 7.63209V5.72409L17.9282 21.2401V23.1481ZM17.9282 27.3241L7.1282 11.8081V9.90009L17.9282 25.4161V27.3241Z" fill="var(--fill-0, white)" fill-opacity="0.96"/>
</g>
</svg>
