<svg preserveAspectRatio="none" width="100%" height="100%" overflow="visible" style="display: block;" viewBox="0 0 53.6844 15" fill="none" xmlns="http://www.w3.org/2000/svg">
<g id="NARU">
<path id="Vector" d="M48.1581 12.5824C47.4604 12.5824 46.879 12.442 46.4139 12.1612C45.961 11.8803 45.6183 11.5079 45.3857 11.044C45.1654 10.5678 45.0553 10.0427 45.0553 9.46886V0H45.6061V9.46886C45.6061 10.177 45.808 10.7814 46.2119 11.2821C46.6158 11.7827 47.2646 12.033 48.1581 12.033C49.0516 12.033 49.7003 11.7827 50.1042 11.2821C50.5081 10.7814 50.7101 10.177 50.7101 9.46886V0H51.2609V9.46886C51.2609 10.0427 51.1446 10.5678 50.9121 11.044C50.6917 11.5079 50.349 11.8803 49.8839 12.1612C49.431 12.442 48.8558 12.5824 48.1581 12.5824ZM48.1581 15C47.0198 15 46.0345 14.7558 45.2021 14.2674C44.3821 13.7668 43.7456 13.0952 43.2927 12.2527C42.8521 11.4103 42.6318 10.4823 42.6318 9.46886V0H43.1826V9.46886C43.1826 10.3846 43.3784 11.221 43.7701 11.978C44.174 12.735 44.7431 13.3394 45.4775 13.7912C46.2242 14.2308 47.1177 14.4505 48.1581 14.4505C49.1985 14.4505 50.0859 14.2308 50.8203 13.7912C51.5669 13.3394 52.136 12.735 52.5277 11.978C52.9316 11.221 53.1336 10.3846 53.1336 9.46886V0H53.6844V9.46886C53.6844 10.4823 53.458 11.4103 53.0051 12.2527C52.5644 13.0952 51.9341 13.7668 51.114 14.2674C50.2939 14.7558 49.3086 15 48.1581 15ZM48.1581 13.7912C47.2401 13.7912 46.4567 13.5958 45.808 13.2051C45.1715 12.8144 44.6819 12.2955 44.3392 11.6484C44.0087 10.989 43.8435 10.2625 43.8435 9.46886V0H44.3943V9.46886C44.3943 10.1648 44.5351 10.7998 44.8166 11.3736C45.1103 11.9353 45.5387 12.3871 46.1018 12.7289C46.6648 13.0708 47.3502 13.2418 48.1581 13.2418C48.9781 13.2418 49.6636 13.0708 50.2144 12.7289C50.7774 12.3871 51.1997 11.9353 51.4812 11.3736C51.775 10.7998 51.9218 10.1648 51.9218 9.46886V0H52.4726V9.46886C52.4726 10.2625 52.3013 10.989 51.9586 11.6484C51.6281 12.2955 51.1385 12.8144 50.4898 13.2051C49.8533 13.5958 49.0761 13.7912 48.1581 13.7912Z" fill="var(--fill-0, black)" fill-opacity="0.59"/>
<path id="Vector_2" d="M31.5508 15V0H32.0826V15H31.5508ZM29.2107 15V0H29.7425V15H29.2107ZM30.3807 15V0H30.9126V15H30.3807ZM32.7208 8.73134V8.17164H36.8868C37.5605 8.17164 38.1691 8.01617 38.7128 7.70522C39.2682 7.39428 39.7055 6.95274 40.0246 6.3806C40.3555 5.80846 40.521 5.13682 40.521 4.36567C40.521 3.59453 40.3555 2.92289 40.0246 2.35075C39.7055 1.77861 39.2682 1.33706 38.7128 1.02612C38.1691 0.715173 37.5605 0.5597 36.8868 0.5597H32.7208V0H36.8868C37.655 0 38.3523 0.186566 38.9787 0.5597C39.6169 0.920397 40.1192 1.43035 40.4855 2.08955C40.8637 2.73632 41.0528 3.49502 41.0528 4.36567C41.0528 5.23632 40.8637 6.00124 40.4855 6.66045C40.1192 7.30721 39.6169 7.81716 38.9787 8.1903C38.3523 8.551 37.655 8.73134 36.8868 8.73134H32.7208ZM32.7208 7.5V6.9403H36.8868C37.5723 6.9403 38.1514 6.71642 38.6241 6.26866C39.1087 5.80846 39.351 5.17413 39.351 4.36567C39.351 3.55721 39.1087 2.9291 38.6241 2.48134C38.1514 2.02114 37.5723 1.79104 36.8868 1.79104H32.7208V1.23134H36.8868C37.4423 1.23134 37.9446 1.36194 38.3937 1.62313C38.8428 1.87189 39.2032 2.23259 39.475 2.70522C39.7469 3.16542 39.8828 3.7189 39.8828 4.36567C39.8828 5.01244 39.7469 5.57214 39.475 6.04478C39.2032 6.50497 38.8428 6.86567 38.3937 7.12687C37.9446 7.37562 37.4423 7.5 36.8868 7.5H32.7208ZM32.7208 6.26866V5.70895H36.8868C37.2414 5.70895 37.5427 5.60323 37.7909 5.39179C38.0509 5.16791 38.1809 4.82587 38.1809 4.36567C38.1809 3.89303 38.0509 3.55099 37.7909 3.33955C37.5427 3.12811 37.2414 3.02239 36.8868 3.02239H32.7208V2.46269H36.8868C37.395 2.46269 37.8264 2.62438 38.1809 2.94776C38.5355 3.27114 38.7128 3.74378 38.7128 4.36567C38.7128 4.98756 38.5355 5.4602 38.1809 5.78358C37.8264 6.10696 37.395 6.26866 36.8868 6.26866H32.7208ZM40.326 15L37.8264 9.23507C37.9091 9.22264 37.9918 9.2102 38.0746 9.19776C38.1691 9.17289 38.2577 9.14179 38.3405 9.10448L40.911 15H40.326ZM39.0319 15L36.5677 9.36567C36.6623 9.36567 36.7568 9.36567 36.8513 9.36567C36.9577 9.35323 37.0582 9.3408 37.1527 9.32836L39.6169 15H39.0319ZM37.7377 15L35.2913 9.38433H35.8763L38.3227 15H37.7377Z" fill="var(--fill-0, black)" fill-opacity="0.59"/>
<path id="Vector_3" d="M16.6895 15L21.8419 0H22.4085L17.2561 15H16.6895ZM14.2107 15L19.3631 0H19.912L14.7773 15H14.2107ZM15.4501 15L20.5848 0H21.1691L16.0167 15H15.4501ZM27.0652 15L22.4439 1.54851L22.7272 0.708955L27.6318 15H27.0652ZM25.8258 15L21.8419 3.37687L22.1075 2.51866L26.3923 15H25.8258ZM24.5863 15L21.2222 5.18657L21.5055 4.34701L25.1529 15H24.5863ZM19.5756 10.0373L19.7704 9.47761H22.1075L22.3023 10.0373H19.5756ZM19.1506 11.2873L19.3454 10.7276H22.5325L22.7272 11.2873H19.1506ZM18.7257 12.5187L18.9205 11.959H22.9574L23.1522 12.5187H18.7257Z" fill="var(--fill-0, black)" fill-opacity="0.59"/>
<path id="Vector_4" d="M12.0873 15V0H12.6318V15H12.0873ZM9.69165 15V0H10.2361V15H9.69165ZM10.8895 15V0H11.4339V15H10.8895ZM2.39582 15V0H2.94029V15H2.39582ZM0.000179894 15V0H0.544644V15H0.000179894ZM1.198 15V0H1.74247V15H1.198ZM9.03829 9.83209L3.59365 1.79104V0.802238L9.03829 8.84328V9.83209ZM9.03829 11.9963L3.59365 3.95522V2.96642L9.03829 11.0075V11.9963ZM9.03829 14.1604L3.59365 6.1194V5.1306L9.03829 13.1716V14.1604Z" fill="var(--fill-0, black)" fill-opacity="0.59"/>
</g>
</svg>
